<?xml version="1.0" encoding="UTF-8" standalone="no"?>
<!DOCTYPE svg PUBLIC "-//W3C//DTD SVG 1.1//EN" "http://www.w3.org/Graphics/SVG/1.1/DTD/svg11.dtd">
<svg width="100%" height="100%" viewBox="0 0 1080 1080" version="1.1" xmlns="http://www.w3.org/2000/svg" xmlns:xlink="http://www.w3.org/1999/xlink" xml:space="preserve" xmlns:serif="http://www.serif.com/" style="fill-rule:evenodd;clip-rule:evenodd;stroke-linejoin:round;stroke-miterlimit:2;">
    <g id="analys-logo">
        <rect x="0" y="0" width="1080" height="1080" style="fill:none;"/>
        <path d="M480,34.641C517.128,13.205 562.872,13.205 600,34.641C689.734,86.449 857.92,183.551 947.654,235.359C984.782,256.795 1007.65,296.41 1007.65,339.282L1007.65,740.718C1007.65,783.59 984.782,823.205 947.654,844.641C857.92,896.449 689.734,993.551 600,1045.36C562.872,1066.8 517.128,1066.8 480,1045.36C390.266,993.551 222.08,896.449 132.346,844.641C95.218,823.205 72.346,783.59 72.346,740.718L72.346,339.282C72.346,296.41 95.218,256.795 132.346,235.359C222.08,183.551 390.266,86.449 480,34.641Z" style="fill:rgb(208,229,241);"/>
        <g transform="matrix(-6.2457e-17,1.02,0.983213,6.02045e-17,271.017,198)">
            <path d="M633.962,688.189C612.946,725.951 574.108,749.214 532.076,749.214L181.508,749.214C164.696,749.214 149.16,739.909 140.754,724.804C132.348,709.699 132.348,691.089 140.754,675.984C183.008,600.06 249.286,480.968 295.905,397.201C297.97,393.49 300.94,390.409 304.517,388.266C328.291,374.027 422.651,317.51 446.425,303.27C450.002,301.128 454.06,300 458.19,300C551.427,300 683.984,300 768.492,300C785.304,300 800.84,309.305 809.246,324.41C817.652,339.515 817.652,358.124 809.246,373.229C760.43,460.944 679.548,606.277 633.962,688.189Z" style="fill:rgb(108,160,220);"/>
        </g>
        <g transform="matrix(6.2457e-17,1.02,-0.983213,6.02045e-17,808.983,198)">
            <path d="M633.962,688.189C612.946,725.951 574.108,749.214 532.076,749.214L181.508,749.214C164.696,749.214 149.16,739.909 140.754,724.804C132.348,709.699 132.348,691.089 140.754,675.984C183.008,600.06 249.286,480.968 295.905,397.201C297.97,393.49 300.94,390.409 304.517,388.266C328.291,374.027 422.651,317.51 446.425,303.27C450.002,301.128 454.06,300 458.19,300C551.427,300 683.984,300 768.492,300C785.304,300 800.84,309.305 809.246,324.41C817.652,339.515 817.652,358.124 809.246,373.229C760.43,460.944 679.548,606.277 633.962,688.189Z" style="fill:rgb(45,98,163);"/>
        </g>
        <g transform="matrix(1.22687,0,0,1.15909,-122.505,-115.909)">
            <path d="M491.095,129.887C521.357,111.393 558.643,111.393 588.905,129.887C654.55,170.003 771.019,241.179 841.314,284.136C853.419,291.534 860.876,305.205 860.876,320C860.876,334.795 853.419,348.466 841.314,355.864C780.469,393.047 685.028,451.372 617.897,492.396C614.923,494.213 611.55,495.17 608.116,495.17C585.293,495.17 494.707,495.17 471.884,495.17C468.45,495.17 465.077,494.213 462.103,492.396C394.972,451.372 299.531,393.047 238.686,355.864C226.581,348.466 219.124,334.795 219.124,320C219.124,305.205 226.581,291.534 238.686,284.136C308.981,241.179 425.45,170.003 491.095,129.887Z" style="fill:rgb(147,180,215);"/>
        </g>
        <g transform="matrix(-1,-1.22465e-16,1.22465e-16,-1,1080,1080)">
            <path d="M72.346,353.138L72.346,339.282C72.346,296.41 95.218,256.795 132.346,235.359L144.347,228.431C129.496,237.005 120.347,252.851 120.347,270C120.347,287.149 129.496,302.995 144.347,311.569C129.496,302.995 111.198,302.995 96.346,311.569C81.495,320.144 72.346,335.99 72.346,353.138Z" style="fill:rgb(56,127,208);fill-opacity:0.75;"/>
        </g>
        <g transform="matrix(-1,-1.22465e-16,1.22465e-16,-1,1080,1080)">
            <path d="M935.653,228.431L947.654,235.359C984.782,256.795 1007.65,296.41 1007.65,339.282L1007.65,353.138C1007.65,335.99 998.505,320.144 983.654,311.569C968.802,302.995 950.504,302.995 935.653,311.569C950.504,302.995 959.653,287.149 959.653,270C959.653,252.851 950.504,237.005 935.653,228.431Z" style="fill:rgb(38,84,140);fill-opacity:0.75;"/>
        </g>
        <g transform="matrix(-1,-1.22465e-16,1.22465e-16,-1,1080,1080)">
            <path d="M612,1038.43L600,1045.36C562.872,1066.8 517.128,1066.8 480,1045.36L468,1038.43C482.851,1047.01 501.149,1047.01 516,1038.43C530.851,1029.86 540,1014.01 540,996.862C540,1014.01 549.149,1029.86 564,1038.43C578.851,1047.01 597.149,1047.01 612,1038.43Z" style="fill:rgb(84,136,192);fill-opacity:0.75;"/>
        </g>
    </g>
</svg>
