<?xml version="1.0" encoding="UTF-8" standalone="no"?>
<!DOCTYPE svg PUBLIC "-//W3C//DTD SVG 1.1//EN" "http://www.w3.org/Graphics/SVG/1.1/DTD/svg11.dtd">
<svg width="100%" height="100%" viewBox="0 0 1080 1080" version="1.1" xmlns="http://www.w3.org/2000/svg" xmlns:xlink="http://www.w3.org/1999/xlink" xml:space="preserve" xmlns:serif="http://www.serif.com/" style="fill-rule:evenodd;clip-rule:evenodd;stroke-linejoin:round;stroke-miterlimit:2;">
    <g id="analys-logo">
        <g transform="matrix(3.05832,3.5582e-32,-3.5582e-32,3.05832,-389.155,-405.81)">
            <path d="M289.098,141.186C298.203,135.929 309.421,135.929 318.526,141.186L442.01,212.479C451.115,217.736 456.724,227.451 456.724,237.965L456.724,380.552C456.724,391.065 451.115,400.78 442.01,406.037L318.526,477.331C309.421,482.588 298.203,482.588 289.098,477.331L165.614,406.037C156.509,400.78 150.9,391.065 150.9,380.552L150.9,237.965C150.9,227.451 156.509,217.736 165.614,212.479L289.098,141.186Z" style="fill:rgb(121,181,216);"/>
        </g>
        <g transform="matrix(-6.2457e-17,1.02,0.983213,6.02045e-17,271.017,198)">
            <path d="M625.471,703.445C609.71,731.767 580.581,749.214 549.057,749.214L150.943,749.214C140.435,749.214 130.725,743.398 125.471,733.958C120.217,724.517 120.217,712.886 125.471,703.445C164.116,634.007 238.614,500.144 291.176,405.697C296.339,396.42 303.765,388.717 312.707,383.361C341.718,365.985 409.224,325.552 438.235,308.176C447.178,302.82 457.321,300 467.647,300L799.057,300C809.565,300 819.275,305.816 824.529,315.256C829.783,324.697 829.783,336.328 824.529,345.768C776.577,431.93 673.423,617.284 625.471,703.445Z" style="fill:rgb(108,160,220);"/>
        </g>
        <g transform="matrix(6.2457e-17,1.02,-0.983213,6.02045e-17,808.983,198)">
            <path d="M625.471,703.445C609.71,731.767 580.581,749.214 549.057,749.214L150.943,749.214C140.435,749.214 130.725,743.398 125.471,733.958C120.217,724.517 120.217,712.886 125.471,703.445C164.116,634.007 238.614,500.144 291.176,405.697C296.339,396.42 303.765,388.717 312.707,383.361C341.718,365.985 409.224,325.552 438.235,308.176C447.178,302.82 457.321,300 467.647,300L799.057,300C809.565,300 819.275,305.816 824.529,315.256C829.783,324.697 829.783,336.328 824.529,345.768C776.577,431.93 673.423,617.284 625.471,703.445Z" style="fill:rgb(45,98,163);"/>
        </g>
        <g transform="matrix(1.22687,0,0,1.15909,-122.507,-115.909)">
            <path d="M503.321,122.415C526.018,108.545 553.982,108.545 576.679,122.415C645.729,164.612 794.271,255.388 863.321,297.585C870.887,302.209 875.548,310.753 875.548,320C875.548,329.247 870.887,337.791 863.321,342.415C807.673,376.422 700.396,441.98 624.706,488.235C617.272,492.778 608.838,495.17 600.254,495.17C572.403,495.17 507.597,495.17 479.746,495.17C471.162,495.17 462.728,492.778 455.294,488.235C379.604,441.98 272.327,376.422 216.679,342.415C209.113,337.791 204.452,329.247 204.452,320C204.452,310.753 209.113,302.209 216.679,297.585C285.729,255.388 434.271,164.612 503.321,122.415Z" style="fill:rgb(147,180,215);"/>
        </g>
        <path d="M126.346,841.177L117.346,835.981C89.5,819.904 72.346,790.192 72.346,758.038L72.346,747.646C72.346,760.508 79.208,772.392 90.346,778.823C101.485,785.254 115.208,785.254 126.346,778.823C115.208,785.254 108.346,797.138 108.346,810C108.346,822.862 115.208,834.746 126.346,841.177Z" style="fill:rgb(39,84,140);"/>
        <path d="M953.654,841.177C964.792,834.746 971.654,822.862 971.654,810C971.654,797.138 964.792,785.254 953.654,778.823C964.792,785.254 978.515,785.254 989.654,778.823C1000.79,772.392 1007.65,760.508 1007.65,747.646L1007.65,758.038C1007.65,790.192 990.5,819.904 962.654,835.981L953.654,841.177Z" style="fill:rgb(57,127,208);"/>
        <path d="M486,31.177L495,25.981C522.846,9.904 557.154,9.904 585,25.981L594,31.177C582.862,24.746 569.138,24.746 558,31.177C546.862,37.608 540,49.492 540,62.354C540,49.492 533.138,37.608 522,31.177C510.862,24.746 497.138,24.746 486,31.177Z" style="fill:rgb(84,136,192);"/>
    </g>
</svg>
