<?xml version="1.0" encoding="UTF-8" standalone="no"?>
<!DOCTYPE svg PUBLIC "-//W3C//DTD SVG 1.1//EN" "http://www.w3.org/Graphics/SVG/1.1/DTD/svg11.dtd">
<svg width="100%" height="100%" viewBox="0 0 1296 432" version="1.1" xmlns="http://www.w3.org/2000/svg" xmlns:xlink="http://www.w3.org/1999/xlink" xml:space="preserve" xmlns:serif="http://www.serif.com/" style="fill-rule:evenodd;clip-rule:evenodd;stroke-linejoin:round;stroke-miterlimit:2;">
    <g id="analys-logo" transform="matrix(0.336024,0,0,0.336024,244.865,-1082.13)">
        <g transform="matrix(0.33,0,0,0.33,562.844,3242.93)">
            <path d="M5182.45,1783.17L5135.58,1783.17C5125.81,1754.85 5111.41,1729.71 5092.37,1707.73C5073.32,1685.76 5051.84,1666.72 5027.91,1650.61C5003.99,1634.49 4977.86,1622.29 4949.55,1613.98C4921.22,1605.68 4892.42,1601.53 4863.12,1601.53C4847.49,1601.53 4831.14,1603 4814.05,1605.93C4796.96,1608.86 4781.33,1613.98 4767.17,1621.31C4753.01,1628.63 4741.29,1638.89 4732.02,1652.07C4722.74,1665.25 4718.1,1681.61 4718.1,1701.14C4718.1,1722.63 4724.2,1740.45 4736.41,1754.61C4748.62,1768.77 4764.97,1780.73 4785.48,1790.5C4805.99,1800.26 4829.43,1808.56 4855.8,1815.4C4882.16,1822.24 4909.99,1829.07 4939.29,1835.91C4974.45,1842.74 5010.09,1850.8 5046.22,1860.08C5082.36,1869.36 5114.58,1881.81 5142.9,1897.43C5171.22,1913.06 5194.42,1932.83 5212.48,1956.76C5230.55,1980.68 5239.58,2011.69 5239.58,2049.78C5239.58,2091.77 5230.31,2128.14 5211.75,2158.91C5193.2,2189.67 5169.03,2215.06 5139.24,2235.08C5109.46,2255.1 5076.01,2269.75 5038.9,2279.02C5001.79,2288.3 4964.19,2292.94 4926.11,2292.94C4902.67,2292.94 4882.89,2291.96 4866.78,2290.01C4850.67,2288.06 4836.26,2285.62 4823.57,2282.68C4810.87,2279.76 4798.91,2276.09 4787.68,2271.7C4776.45,2267.3 4764.97,2262.18 4753.26,2256.32C4744.47,2251.43 4734.21,2246.55 4722.49,2241.67C4710.78,2236.79 4698.08,2231.42 4684.41,2225.56L4684.41,2227.02L4665.36,2285.62L4615.56,2285.62L4567.22,2023.41L4618.49,2023.41C4628.26,2056.61 4643.39,2086.64 4663.9,2113.5C4684.41,2140.35 4708.58,2163.06 4736.41,2181.61C4764.24,2200.17 4794.52,2214.57 4827.23,2224.82C4859.94,2235.08 4892.9,2240.2 4926.11,2240.2C4948.57,2240.2 4970.54,2238.01 4992.03,2233.61C5013.51,2229.22 5033.04,2221.89 5050.62,2211.64C5068.2,2201.39 5082.36,2187.47 5093.1,2169.89C5103.84,2152.31 5109.21,2130.34 5109.21,2103.97C5109.21,2083.47 5103.11,2066.13 5090.9,2051.97C5078.69,2037.81 5062.34,2025.61 5041.83,2015.35C5021.32,2005.1 4997.64,1996.31 4970.78,1988.98C4943.93,1981.66 4915.85,1974.58 4886.56,1967.74C4851.4,1958.95 4816,1949.68 4780.36,1939.91C4744.71,1930.15 4712.48,1917.45 4683.68,1901.83C4654.87,1886.2 4631.67,1866.91 4614.1,1843.96C4596.52,1821.02 4587.73,1791.96 4587.73,1756.81C4587.73,1719.7 4596.76,1687.96 4614.83,1661.59C4632.89,1635.22 4655.84,1613.25 4683.68,1595.67C4711.51,1578.1 4742.51,1565.16 4776.69,1556.86C4810.87,1548.55 4843.59,1544.4 4874.84,1544.4C4910.97,1544.4 4946.86,1550.26 4982.5,1561.98C5018.15,1573.7 5050.62,1589.81 5079.92,1610.32L5079.92,1608.86L5094.56,1560.52L5135.58,1560.52L5182.45,1783.17Z" style="fill:rgb(45,98,163);fill-rule:nonzero;"/>
        </g>
        <g transform="matrix(0.33,0,0,0.33,574.748,3242.93)">
            <path d="M4010.58,1557.59L4010.58,1595.67L3903.65,1624.97L3903.65,1630.83C3938.8,1716.77 3973.96,1802.7 4009.12,1888.64C4044.27,1974.58 4078.94,2061.49 4113.12,2149.38L4306.48,1636.69L4306.48,1632.29L4177.57,1595.67L4177.57,1556.12L4501.3,1556.12L4501.3,1597.14L4397.3,1624.97L4397.3,1626.43C4345.54,1748.51 4294.76,1869.36 4244.95,1988.98C4195.15,2108.61 4144.37,2228.97 4092.61,2350.07C4084.8,2369.6 4076.25,2388.4 4066.98,2406.46C4057.7,2424.53 4047.69,2442.84 4036.95,2461.4C4031.09,2472.14 4025.47,2482.15 4020.1,2491.43C4014.73,2500.7 4009.6,2510.22 4004.72,2519.99C3984.21,2558.08 3954.18,2587.13 3914.63,2607.15C3875.08,2627.17 3834.31,2637.18 3792.32,2637.18C3776.69,2637.18 3761.07,2635.71 3745.44,2632.78C3729.82,2629.85 3715.66,2624.97 3702.96,2618.13C3690.27,2611.3 3680.01,2602.02 3672.2,2590.3C3664.39,2578.58 3660.48,2563.45 3660.48,2544.89C3660.48,2527.31 3667.07,2511.45 3680.26,2497.28C3693.44,2483.12 3709.8,2476.04 3729.33,2476.04C3744.95,2476.04 3757.65,2479.71 3767.42,2487.03C3777.18,2494.36 3786.95,2502.9 3796.71,2512.67C3807.45,2523.41 3818.44,2533.17 3829.67,2541.96C3840.9,2550.75 3855.8,2555.15 3874.35,2555.15C3885.09,2555.15 3897.54,2552.22 3911.7,2546.36C3925.86,2540.5 3935.38,2532.2 3940.27,2521.45L4039.88,2339.81L4039.88,2336.88L3751.3,1626.43L3751.3,1624.97L3653.16,1598.6L3653.16,1557.59L4010.58,1557.59Z" style="fill:rgb(45,98,163);fill-rule:nonzero;"/>
        </g>
        <g transform="matrix(0.33,0,0,0.33,574.748,3242.93)">
            <path d="M3506.67,1206.03L3508.14,2209.44L3508.14,2212.37L3631.18,2243.13L3631.18,2285.62L3229.82,2285.62L3229.82,2246.06L3358.72,2212.37L3358.72,1310.03L3228.35,1310.03L3228.35,1267.55L3451.01,1206.03L3506.67,1206.03Z" style="fill:rgb(45,98,163);fill-rule:nonzero;"/>
        </g>
        <g transform="matrix(0.33,0,0,0.33,574.748,3242.93)">
            <path d="M2884.12,1721.65C2884.12,1705.05 2879.48,1689.42 2870.2,1674.78C2860.92,1660.13 2848.23,1647.43 2832.11,1636.69C2816,1625.95 2797.69,1617.16 2777.18,1610.32C2756.67,1603.49 2734.7,1600.07 2711.26,1600.07C2695.64,1600.07 2678.55,1601.53 2659.99,1604.46C2641.44,1607.39 2624.11,1612.52 2607.99,1619.84C2591.88,1627.17 2578.45,1637.42 2567.71,1650.61C2556.97,1663.79 2551.6,1680.15 2551.6,1699.68C2551.6,1709.44 2550.62,1719.94 2548.67,1731.17C2546.71,1742.4 2543.05,1752.41 2537.68,1761.2C2532.31,1769.99 2525.47,1777.31 2517.17,1783.17C2508.87,1789.03 2498.37,1791.96 2485.68,1791.96C2466.15,1791.96 2448.08,1787.32 2431.48,1778.05C2414.88,1768.77 2406.58,1753.88 2406.58,1733.37C2406.58,1707 2415.12,1682.59 2432.21,1660.13C2449.3,1637.67 2473.23,1618.13 2503.99,1601.53C2534.75,1584.93 2570.88,1571.99 2612.39,1562.71C2653.89,1553.44 2699.06,1548.8 2747.88,1548.8C2788.9,1548.8 2826.5,1553.68 2860.68,1563.45C2894.86,1573.21 2924.64,1586.64 2950.03,1603.73C2975.42,1620.82 2995.2,1641.08 3009.36,1664.52C3023.52,1687.96 3030.6,1713.35 3030.6,1740.69L3030.6,2206.51L3177.08,2246.06L3177.08,2285.62L2969.08,2285.62L2884.12,2191.87L2884.12,2190.4C2856.77,2209.93 2831.87,2226.29 2809.41,2239.47C2786.95,2252.66 2764.97,2263.4 2743.49,2271.7C2722.01,2280 2700.76,2285.86 2679.77,2289.28C2658.77,2292.7 2636.07,2294.4 2611.65,2294.4C2577.47,2294.4 2545.74,2290.5 2516.44,2282.68C2487.14,2274.87 2461.75,2264.13 2440.27,2250.46C2418.78,2236.79 2401.94,2220.43 2389.73,2201.39C2377.52,2182.34 2371.42,2161.59 2371.42,2139.13C2371.42,2101.04 2380.21,2068.09 2397.79,2040.25C2415.37,2012.42 2438.31,1988.25 2466.63,1967.74C2494.95,1947.24 2527.43,1930.39 2564.05,1917.21C2600.67,1904.02 2638.02,1893.53 2676.11,1885.71C2714.19,1877.9 2751.3,1872.53 2787.43,1869.6C2823.57,1866.67 2855.8,1865.2 2884.12,1865.2L2884.12,1721.65ZM2882.65,1912.08C2764.49,1920.87 2675.62,1941.87 2616.05,1975.07C2556.48,2008.27 2526.69,2053.68 2526.69,2111.3C2526.69,2146.45 2538.9,2174.53 2563.31,2195.53C2587.73,2216.52 2621.91,2227.02 2665.85,2227.02C2709.8,2227.02 2748.62,2217.26 2782.31,2197.72C2816,2178.19 2849.45,2155.73 2882.65,2130.34L2882.65,1912.08Z" style="fill:rgb(45,98,163);fill-rule:nonzero;"/>
        </g>
        <g transform="matrix(0.33,0,0,0.33,577.724,3242.93)">
            <path d="M1640.46,1673.31C1659.02,1654.76 1680.75,1637.67 1705.65,1622.04C1730.55,1606.42 1756.67,1592.74 1784.02,1581.03C1811.36,1569.31 1839.19,1560.27 1867.51,1553.92C1895.83,1547.58 1923.18,1544.4 1949.55,1544.4C1972.98,1544.4 1998.62,1548.07 2026.45,1555.39C2054.28,1562.71 2079.92,1573.21 2103.35,1586.88C2126.79,1600.56 2146.57,1617.89 2162.68,1638.89C2178.79,1659.88 2186.85,1684.05 2186.85,1711.4L2186.85,2213.84L2312.83,2247.53L2312.83,2285.62L1911.46,2285.62L1911.46,2248.99L2037.43,2215.3L2037.43,1740.69C2037.43,1724.09 2033.53,1708.22 2025.72,1693.09C2017.9,1677.95 2007.89,1664.52 1995.69,1652.8C1983.48,1641.08 1969.56,1631.56 1953.94,1624.24C1938.31,1616.91 1922.69,1613.25 1907.06,1613.25C1891.44,1613.25 1870.69,1617.4 1844.81,1625.7C1818.93,1634 1792.56,1644.26 1765.71,1656.46C1738.85,1668.67 1713.95,1682.1 1691,1696.75C1668.05,1711.4 1651.69,1725.07 1641.93,1737.76L1641.93,2213.84L1767.9,2247.53L1767.9,2285.62L1369.47,2285.62L1369.47,2248.99L1495.44,2215.3L1495.44,1657.2L1363.61,1657.2L1363.61,1617.65C1380.21,1611.79 1399.98,1605.44 1422.93,1598.6C1445.88,1591.77 1469.56,1585.42 1493.98,1579.56C1518.39,1573.7 1542.07,1568.57 1565.02,1564.18C1587.97,1559.79 1607.26,1557.59 1622.88,1557.59C1631.67,1557.59 1637.53,1558.08 1640.46,1559.05L1640.46,1673.31Z" style="fill:rgb(45,98,163);fill-rule:nonzero;"/>
        </g>
        <g transform="matrix(0.33,0,0,0.33,577.724,3242.93)">
            <path d="M1026.69,1721.65C1026.69,1705.05 1022.05,1689.42 1012.78,1674.78C1003.5,1660.13 990.804,1647.43 974.691,1636.69C958.578,1625.95 940.267,1617.16 919.759,1610.32C899.252,1603.49 877.279,1600.07 853.841,1600.07C838.216,1600.07 821.127,1601.53 802.572,1604.46C784.017,1607.39 766.683,1612.52 750.57,1619.84C734.457,1627.17 721.029,1637.42 710.287,1650.61C699.545,1663.79 694.173,1680.15 694.173,1699.68C694.173,1709.44 693.197,1719.94 691.244,1731.17C689.291,1742.4 685.629,1752.41 680.257,1761.2C674.886,1769.99 668.05,1777.31 659.75,1783.17C651.449,1789.03 640.951,1791.96 628.255,1791.96C608.724,1791.96 590.658,1787.32 574.056,1778.05C557.455,1768.77 549.154,1753.88 549.154,1733.37C549.154,1707 557.699,1682.59 574.789,1660.13C591.879,1637.67 615.804,1618.13 646.566,1601.53C677.328,1584.93 713.461,1571.99 754.964,1562.71C796.468,1553.44 841.634,1548.8 890.462,1548.8C931.478,1548.8 969.076,1553.68 1003.25,1563.45C1037.43,1573.21 1067.22,1586.64 1092.61,1603.73C1118,1620.82 1137.78,1641.08 1151.94,1664.52C1166.1,1687.96 1173.18,1713.35 1173.18,1740.69L1173.18,2206.51L1319.66,2246.06L1319.66,2285.62L1111.65,2285.62L1026.69,2191.87L1026.69,2190.4C999.349,2209.93 974.447,2226.29 951.986,2239.47C929.525,2252.66 907.552,2263.4 886.068,2271.7C864.584,2280 843.343,2285.86 822.347,2289.28C801.351,2292.7 778.646,2294.4 754.232,2294.4C720.052,2294.4 688.314,2290.5 659.017,2282.68C629.72,2274.87 604.33,2264.13 582.845,2250.46C561.361,2236.79 544.515,2220.43 532.308,2201.39C520.101,2182.34 513.998,2161.59 513.998,2139.13C513.998,2101.04 522.787,2068.09 540.365,2040.25C557.943,2012.42 580.892,1988.25 609.212,1967.74C637.533,1947.24 670.003,1930.39 706.625,1917.21C743.246,1904.02 780.599,1893.53 818.685,1885.71C856.771,1877.9 893.88,1872.53 930.013,1869.6C966.146,1866.67 998.373,1865.2 1026.69,1865.2L1026.69,1721.65ZM1025.23,1912.08C907.064,1920.87 818.197,1941.87 758.627,1975.07C699.056,2008.27 669.271,2053.68 669.271,2111.3C669.271,2146.45 681.478,2174.53 705.892,2195.53C730.306,2216.52 764.486,2227.02 808.431,2227.02C852.377,2227.02 891.195,2217.26 924.886,2197.72C958.578,2178.19 992.025,2155.73 1025.23,2130.34L1025.23,1912.08Z" style="fill:rgb(45,98,163);fill-rule:nonzero;"/>
        </g>
    </g>
    <g id="analys-logo1" serif:id="analys-logo" transform="matrix(0.166667,0,0,0.166667,234,126)">
        <rect x="0" y="0" width="1080" height="1080" style="fill:none;"/>
        <g transform="matrix(3.05832,3.5582e-32,-3.5582e-32,3.05832,-389.155,-405.81)">
            <path d="M289.098,141.186C298.203,135.929 309.421,135.929 318.526,141.186L442.01,212.479C451.115,217.736 456.724,227.451 456.724,237.965L456.724,380.552C456.724,391.065 451.115,400.78 442.01,406.037L318.526,477.331C309.421,482.588 298.203,482.588 289.098,477.331L165.614,406.037C156.509,400.78 150.9,391.065 150.9,380.552L150.9,237.965C150.9,227.451 156.509,217.736 165.614,212.479L289.098,141.186Z" style="fill:rgb(208,229,241);"/>
        </g>
        <g transform="matrix(-6.2457e-17,1.02,0.983213,6.02045e-17,271.017,198)">
            <path d="M625.471,703.445C609.71,731.767 580.581,749.214 549.057,749.214L150.943,749.214C140.435,749.214 130.725,743.398 125.471,733.958C120.217,724.517 120.217,712.886 125.471,703.445C155.303,649.841 206.502,557.845 252.481,475.227C282.994,420.4 326.88,374.872 379.729,343.218C389.98,337.078 400.129,331 409.434,325.426C437.244,308.769 468.791,300 500.904,300C602.289,300 729.616,300 799.057,300C809.565,300 819.275,305.816 824.529,315.256C829.783,324.697 829.783,336.328 824.529,345.768C776.577,431.93 673.423,617.284 625.471,703.445Z" style="fill:rgb(108,160,220);"/>
        </g>
        <g transform="matrix(6.2457e-17,1.02,-0.983213,6.02045e-17,808.983,198)">
            <path d="M625.471,703.445C609.71,731.767 580.581,749.214 549.057,749.214L150.943,749.214C140.435,749.214 130.725,743.398 125.471,733.958C120.217,724.517 120.217,712.886 125.471,703.445C155.303,649.841 206.502,557.845 252.481,475.227C282.994,420.4 326.88,374.872 379.729,343.218C389.98,337.078 400.129,331 409.434,325.426C437.244,308.769 468.791,300 500.904,300C602.289,300 729.616,300 799.057,300C809.565,300 819.275,305.816 824.529,315.256C829.783,324.697 829.783,336.328 824.529,345.768C776.577,431.93 673.423,617.284 625.471,703.445Z" style="fill:rgb(45,98,163);"/>
        </g>
        <g transform="matrix(1.22687,0,0,1.15909,-122.507,-115.909)">
            <path d="M503.321,122.415C526.018,108.545 553.982,108.545 576.679,122.415C645.729,164.612 794.271,255.388 863.321,297.585C870.887,302.209 875.548,310.753 875.548,320C875.548,329.247 870.887,337.791 863.321,342.415C820.363,368.667 746.638,413.721 680.427,454.183C636.489,481.034 586.648,495.17 535.913,495.17C526.071,495.17 516.329,495.17 507.396,495.17C480.698,495.17 454.47,487.732 431.348,473.602C358.351,428.993 266.676,372.969 216.679,342.415C209.113,337.791 204.452,329.247 204.452,320C204.452,310.753 209.113,302.209 216.679,297.585C285.729,255.388 434.271,164.612 503.321,122.415Z" style="fill:rgb(147,180,215);"/>
        </g>
        <path d="M126.346,841.177L117.346,835.981C89.5,819.904 72.346,790.192 72.346,758.038L72.346,747.646C72.346,760.508 79.208,772.392 90.346,778.823C101.485,785.254 115.208,785.254 126.346,778.823C115.208,785.254 108.346,797.138 108.346,810C108.346,822.862 115.208,834.746 126.346,841.177Z" style="fill:rgb(39,84,140);"/>
        <path d="M953.654,841.177C964.792,834.746 971.654,822.862 971.654,810C971.654,797.138 964.792,785.254 953.654,778.823C964.792,785.254 978.515,785.254 989.654,778.823C1000.79,772.392 1007.65,760.508 1007.65,747.646L1007.65,758.038C1007.65,790.192 990.5,819.904 962.654,835.981L953.654,841.177Z" style="fill:rgb(57,127,208);"/>
        <path d="M486,31.177L495,25.981C522.846,9.904 557.154,9.904 585,25.981L594,31.177C582.862,24.746 569.138,24.746 558,31.177C546.862,37.608 540,49.492 540,62.354C540,49.492 533.138,37.608 522,31.177C510.862,24.746 497.138,24.746 486,31.177Z" style="fill:rgb(84,136,192);"/>
    </g>
</svg>
