<?xml version="1.0" encoding="UTF-8" standalone="no"?><!DOCTYPE svg PUBLIC "-//W3C//DTD SVG 1.1//EN" "http://www.w3.org/Graphics/SVG/1.1/DTD/svg11.dtd"><svg width="100%" height="100%" viewBox="0 0 1296 432" version="1.1" xmlns="http://www.w3.org/2000/svg" xmlns:xlink="http://www.w3.org/1999/xlink" xml:space="preserve" xmlns:serif="http://www.serif.com/" style="fill-rule:evenodd;clip-rule:evenodd;stroke-linejoin:round;stroke-miterlimit:2;"><g id="analys-logo"><path d="M1063.66,205.301l-5.198,0c-1.083,-3.14 -2.68,-5.929 -4.792,-8.365c-2.111,-2.437 -4.494,-4.548 -7.147,-6.335c-2.653,-1.787 -5.549,-3.14 -8.69,-4.061c-3.14,-0.92 -6.335,-1.38 -9.583,-1.38c-1.733,-0 -3.547,0.162 -5.442,0.487c-1.895,0.325 -3.628,0.893 -5.198,1.705c-1.57,0.813 -2.869,1.95 -3.898,3.412c-1.029,1.461 -1.543,3.275 -1.543,5.441c-0,2.382 0.677,4.359 2.03,5.929c1.354,1.57 3.168,2.897 5.442,3.979c2.274,1.083 4.873,2.004 7.796,2.762c2.924,0.758 6.01,1.516 9.259,2.274c3.899,0.758 7.851,1.651 11.858,2.68c4.006,1.029 7.58,2.409 10.72,4.142c3.141,1.733 5.713,3.926 7.716,6.579c2.003,2.653 3.005,6.091 3.005,10.314c0,4.657 -1.029,8.69 -3.086,12.101c-2.058,3.412 -4.738,6.227 -8.041,8.447c-3.303,2.22 -7.011,3.844 -11.126,4.873c-4.115,1.029 -8.284,1.543 -12.508,1.543c-2.599,0 -4.792,-0.108 -6.578,-0.325c-1.787,-0.216 -3.384,-0.487 -4.792,-0.812c-1.408,-0.325 -2.734,-0.731 -3.98,-1.218c-1.245,-0.487 -2.517,-1.056 -3.817,-1.706c-0.975,-0.541 -2.112,-1.083 -3.411,-1.624c-1.299,-0.541 -2.707,-1.137 -4.223,-1.787l-0,0.163l-2.112,6.497l-5.523,-0l-5.36,-29.076l5.685,0c1.083,3.682 2.762,7.012 5.036,9.99c2.274,2.978 4.954,5.496 8.04,7.553c3.086,2.058 6.443,3.655 10.071,4.792c3.628,1.137 7.282,1.706 10.964,1.706c2.491,-0 4.927,-0.244 7.31,-0.731c2.382,-0.488 4.548,-1.3 6.497,-2.437c1.949,-1.137 3.519,-2.68 4.711,-4.629c1.191,-1.949 1.786,-4.386 1.786,-7.31c0,-2.274 -0.676,-4.196 -2.03,-5.766c-1.354,-1.57 -3.167,-2.924 -5.442,-4.061c-2.274,-1.137 -4.9,-2.112 -7.878,-2.924c-2.977,-0.812 -6.091,-1.597 -9.339,-2.355c-3.899,-0.975 -7.824,-2.003 -11.777,-3.086c-3.952,-1.083 -7.526,-2.491 -10.72,-4.224c-3.195,-1.732 -5.767,-3.871 -7.716,-6.416c-1.949,-2.544 -2.924,-5.766 -2.924,-9.664c0,-4.115 1.002,-7.635 3.005,-10.559c2.003,-2.923 4.548,-5.36 7.635,-7.309c3.086,-1.949 6.524,-3.384 10.314,-4.305c3.79,-0.92 7.418,-1.38 10.883,-1.38c4.007,-0 7.986,0.649 11.939,1.949c3.952,1.299 7.553,3.086 10.802,5.36l-0,-0.162l1.624,-5.361l4.548,0l5.198,24.69Z" style="fill:#2d62a3;fill-rule:nonzero;"/><path d="M937.718,180.287l0,4.223l-11.857,3.248l-0,0.65c3.898,9.53 7.797,19.059 11.695,28.589c3.898,9.529 7.743,19.167 11.533,28.913l21.441,-56.852l-0,-0.487l-14.294,-4.061l-0,-4.386l35.898,0l-0,4.548l-11.533,3.086l-0,0.163c-5.74,13.536 -11.371,26.937 -16.893,40.202c-5.523,13.266 -11.154,26.612 -16.893,40.04c-0.867,2.166 -1.814,4.25 -2.843,6.254c-1.029,2.003 -2.139,4.033 -3.33,6.091c-0.65,1.191 -1.272,2.301 -1.868,3.33c-0.595,1.029 -1.164,2.084 -1.705,3.167c-2.274,4.224 -5.604,7.445 -9.99,9.665c-4.386,2.22 -8.907,3.33 -13.563,3.33c-1.733,-0 -3.465,-0.162 -5.198,-0.487c-1.733,-0.325 -3.303,-0.867 -4.711,-1.625c-1.407,-0.758 -2.544,-1.786 -3.411,-3.086c-0.866,-1.299 -1.299,-2.978 -1.299,-5.035c-0,-1.95 0.731,-3.709 2.193,-5.279c1.462,-1.571 3.275,-2.356 5.441,-2.356c1.733,0 3.141,0.406 4.223,1.219c1.083,0.812 2.166,1.759 3.249,2.842c1.191,1.191 2.409,2.274 3.655,3.249c1.245,0.974 2.897,1.462 4.954,1.462c1.191,-0 2.572,-0.325 4.142,-0.975c1.57,-0.65 2.626,-1.57 3.168,-2.761l11.045,-20.142l0,-0.325l-31.999,-78.78l-0,-0.163l-10.883,-2.923l-0,-4.548l39.633,-0Z" style="fill:#2d62a3;fill-rule:nonzero;"/><path d="M881.841,141.303l0.163,111.266l-0,0.325l13.644,3.411l0,4.711l-44.507,-0l0,-4.386l14.294,-3.736l0,-100.059l-14.456,0l-0,-4.71l24.69,-6.822l6.172,-0Z" style="fill:#2d62a3;fill-rule:nonzero;"/><path d="M812.807,198.479c0,-1.841 -0.514,-3.573 -1.543,-5.198c-1.029,-1.624 -2.437,-3.032 -4.223,-4.223c-1.787,-1.191 -3.818,-2.166 -6.092,-2.924c-2.274,-0.758 -4.71,-1.137 -7.309,-1.137c-1.733,0 -3.628,0.163 -5.685,0.487c-2.058,0.325 -3.98,0.894 -5.767,1.706c-1.786,0.812 -3.275,1.949 -4.467,3.411c-1.191,1.462 -1.786,3.276 -1.786,5.442c-0,1.082 -0.109,2.247 -0.325,3.492c-0.217,1.245 -0.623,2.355 -1.218,3.33c-0.596,0.974 -1.354,1.787 -2.275,2.436c-0.92,0.65 -2.084,0.975 -3.492,0.975c-2.166,-0 -4.169,-0.514 -6.01,-1.543c-1.841,-1.029 -2.761,-2.68 -2.761,-4.954c-0,-2.924 0.947,-5.631 2.842,-8.122c1.895,-2.491 4.548,-4.657 7.96,-6.497c3.411,-1.841 7.417,-3.276 12.02,-4.305c4.602,-1.029 9.61,-1.543 15.025,-1.543c4.548,-0 8.717,0.541 12.507,1.624c3.79,1.083 7.093,2.572 9.909,4.467c2.815,1.895 5.008,4.142 6.578,6.741c1.57,2.599 2.355,5.415 2.355,8.447l0,51.654l16.244,4.385l-0,4.386l-23.066,-0l-9.421,-10.396l0,-0.162c-3.032,2.166 -5.793,3.979 -8.284,5.441c-2.491,1.462 -4.927,2.653 -7.31,3.574c-2.382,0.92 -4.737,1.57 -7.065,1.949c-2.329,0.379 -4.846,0.569 -7.554,0.569c-3.79,-0 -7.309,-0.434 -10.558,-1.3c-3.248,-0.866 -6.064,-2.057 -8.446,-3.573c-2.383,-1.516 -4.251,-3.33 -5.604,-5.442c-1.354,-2.112 -2.031,-4.413 -2.031,-6.903c0,-4.224 0.975,-7.878 2.924,-10.965c1.949,-3.086 4.494,-5.766 7.635,-8.04c3.14,-2.274 6.74,-4.142 10.801,-5.604c4.061,-1.462 8.203,-2.626 12.426,-3.492c4.224,-0.867 8.339,-1.462 12.345,-1.787c4.007,-0.325 7.581,-0.487 10.721,-0.487l0,-15.919Zm-0.162,21.116c-13.103,0.975 -22.958,3.303 -29.563,6.985c-6.606,3.682 -9.909,8.717 -9.909,15.106c0,3.899 1.354,7.012 4.061,9.34c2.707,2.329 6.497,3.493 11.37,3.493c4.873,-0 9.178,-1.083 12.914,-3.249c3.736,-2.166 7.445,-4.656 11.127,-7.472l-0,-24.203Z" style="fill:#2d62a3;fill-rule:nonzero;"/><path d="M675.901,193.119c2.058,-2.058 4.467,-3.953 7.228,-5.685c2.762,-1.733 5.658,-3.249 8.691,-4.549c3.032,-1.299 6.118,-2.301 9.258,-3.005c3.141,-0.703 6.173,-1.055 9.097,-1.055c2.598,-0 5.441,0.406 8.527,1.218c3.087,0.812 5.929,1.976 8.528,3.492c2.599,1.516 4.792,3.438 6.579,5.767c1.786,2.328 2.68,5.008 2.68,8.04l-0,55.715l13.969,3.736l0,4.223l-44.507,-0l0,-4.061l13.97,-3.736l-0,-52.628c-0,-1.841 -0.434,-3.601 -1.3,-5.279c-0.866,-1.679 -1.976,-3.168 -3.33,-4.467c-1.353,-1.3 -2.897,-2.356 -4.629,-3.168c-1.733,-0.812 -3.465,-1.218 -5.198,-1.218c-1.733,0 -4.034,0.46 -6.903,1.381c-2.87,0.92 -5.794,2.057 -8.772,3.411c-2.978,1.353 -5.739,2.842 -8.284,4.467c-2.545,1.624 -4.359,3.14 -5.442,4.548l0,52.791l13.97,3.736l-0,4.223l-44.182,-0l-0,-4.061l13.969,-3.736l0,-61.887l-14.619,0l0,-4.386c1.841,-0.649 4.034,-1.353 6.579,-2.111c2.544,-0.758 5.17,-1.462 7.878,-2.112c2.707,-0.65 5.333,-1.218 7.878,-1.705c2.545,-0.488 4.683,-0.731 6.416,-0.731c0.974,-0 1.624,0.054 1.949,0.162l0,12.67Z" style="fill:#2d62a3;fill-rule:nonzero;"/><path d="M607.841,198.479c0,-1.841 -0.514,-3.573 -1.543,-5.198c-1.028,-1.624 -2.436,-3.032 -4.223,-4.223c-1.787,-1.191 -3.817,-2.166 -6.091,-2.924c-2.274,-0.758 -4.711,-1.137 -7.31,-1.137c-1.732,0 -3.627,0.163 -5.685,0.487c-2.057,0.325 -3.979,0.894 -5.766,1.706c-1.787,0.812 -3.276,1.949 -4.467,3.411c-1.191,1.462 -1.787,3.276 -1.787,5.442c0,1.082 -0.108,2.247 -0.325,3.492c-0.216,1.245 -0.622,2.355 -1.218,3.33c-0.596,0.974 -1.354,1.787 -2.274,2.436c-0.921,0.65 -2.085,0.975 -3.492,0.975c-2.166,-0 -4.17,-0.514 -6.01,-1.543c-1.841,-1.029 -2.762,-2.68 -2.762,-4.954c0,-2.924 0.948,-5.631 2.843,-8.122c1.895,-2.491 4.548,-4.657 7.959,-6.497c3.411,-1.841 7.418,-3.276 12.02,-4.305c4.602,-1.029 9.611,-1.543 15.025,-1.543c4.548,-0 8.717,0.541 12.508,1.624c3.79,1.083 7.092,2.572 9.908,4.467c2.815,1.895 5.008,4.142 6.579,6.741c1.57,2.599 2.355,5.415 2.355,8.447l-0,51.654l16.243,4.385l0,4.386l-23.065,-0l-9.422,-10.396l0,-0.162c-3.032,2.166 -5.793,3.979 -8.284,5.441c-2.49,1.462 -4.927,2.653 -7.309,3.574c-2.383,0.92 -4.738,1.57 -7.066,1.949c-2.328,0.379 -4.846,0.569 -7.553,0.569c-3.79,-0 -7.31,-0.434 -10.558,-1.3c-3.249,-0.866 -6.065,-2.057 -8.447,-3.573c-2.382,-1.516 -4.25,-3.33 -5.604,-5.442c-1.353,-2.112 -2.03,-4.413 -2.03,-6.903c-0,-4.224 0.974,-7.878 2.924,-10.965c1.949,-3.086 4.494,-5.766 7.634,-8.04c3.14,-2.274 6.741,-4.142 10.802,-5.604c4.061,-1.462 8.203,-2.626 12.426,-3.492c4.223,-0.867 8.338,-1.462 12.345,-1.787c4.007,-0.325 7.58,-0.487 10.72,-0.487l0,-15.919Zm-0.162,21.116c-13.103,0.975 -22.957,3.303 -29.563,6.985c-6.605,3.682 -9.908,8.717 -9.908,15.106c-0,3.899 1.353,7.012 4.061,9.34c2.707,2.329 6.497,3.493 11.37,3.493c4.873,-0 9.177,-1.083 12.913,-3.249c3.736,-2.166 7.445,-4.656 11.127,-7.472l0,-24.203Z" style="fill:#2d62a3;fill-rule:nonzero;"/></g><g id="analys-logo1" serif:id="analys-logo"><rect id="background" x="228" y="120" width="192" height="192" style="fill:none;"/><g id="block"><path d="M338.884,301.999c-1.416,0.548 -7.293,2.633 -14.877,2.653l0,-88.652l76.769,-44.323c3.881,6.687 4.961,12.942 5.158,14.294c0.013,0.087 0.025,0.174 0.035,0.262c-0,0.004 0,0.007 0,0.007c0,-0 1.17,12.109 1.17,29.76c-0,17.651 -1.17,29.76 -1.17,29.76c0,0 -0.843,6.988 -5.195,14.566c-4.351,7.578 -10.016,11.781 -10.016,11.781c-0,0 -9.359,6.68 -23.926,15.161c-0.417,0.243 -0.838,0.487 -1.263,0.732c-0.425,0.245 -0.847,0.488 -1.265,0.727c-14.628,8.375 -25.092,13.14 -25.092,13.14c-0,0 -0.017,0.007 -0.048,0.02c-0.093,0.04 -0.186,0.077 -0.28,0.112Z" style="fill:#6ca0dc;"/><path d="M240.875,219.297c-0.009,-1.076 -0.013,-2.175 -0.013,-3.297c-0,-1.122 0.004,-2.221 0.013,-3.297c0.13,-15.845 1.156,-26.463 1.156,-26.463c-0,-0 0.002,-0.018 0.006,-0.052c0.013,-0.099 0.027,-0.198 0.044,-0.297c0.233,-1.502 1.366,-7.637 5.145,-14.217l0.001,-0.003l76.78,44.329l0,88.652l-0.007,-0c-7.732,0.018 -13.692,-2.176 -14.961,-2.681c-0.082,-0.031 -0.163,-0.065 -0.244,-0.1c-0.004,-0.003 -0.007,-0.004 -0.007,-0.004c0,0 -9.903,-4.51 -23.91,-12.465c-0.802,-0.456 -1.619,-0.924 -2.447,-1.402c-0.829,-0.478 -1.642,-0.952 -2.438,-1.419c-13.893,-8.152 -22.751,-14.474 -22.751,-14.474c0,0 -5.63,-4.224 -10.016,-11.781c-4.387,-7.557 -5.195,-14.566 -5.195,-14.566c-0,0 -1.026,-10.618 -1.156,-26.463Z" style="fill:#2d62a3;"/><path d="M390.957,160.048c1.037,0.825 5.918,4.909 9.817,11.626l0.002,0.003l-76.769,44.323l-76.78,-44.329c3.85,-6.704 8.728,-10.767 9.8,-11.613c0.069,-0.055 0.138,-0.109 0.209,-0.162c0.004,-0.002 0.006,-0.003 0.006,-0.003c0,-0 8.858,-6.322 22.751,-14.474c0.796,-0.467 1.609,-0.941 2.438,-1.419c0.828,-0.478 1.645,-0.946 2.447,-1.402c14.007,-7.955 23.91,-12.465 23.91,-12.465c0,-0 6.474,-2.764 15.212,-2.785c8.738,-0.02 15.212,2.785 15.212,2.785c-0,-0 10.464,4.765 25.092,13.14c0.418,0.239 0.84,0.482 1.265,0.727c0.425,0.245 0.846,0.489 1.263,0.732c14.567,8.481 23.926,15.161 23.926,15.161l0.004,0.003c0.066,0.05 0.131,0.1 0.195,0.152Z" style="fill:#93b4d7;"/></g><path id="base" d="M242.081,185.891c0.233,-1.502 1.366,-7.637 5.145,-14.217c3.85,-6.705 8.729,-10.769 9.801,-11.616c-1.65,1.331 -2.565,3.379 -2.442,5.507c0.128,2.215 1.363,4.218 3.285,5.327l52.738,30.448c0.912,0.526 1.946,0.804 3,0.804l20.784,-0c1.054,-0 2.088,-0.278 3,-0.804c15.491,-8.944 40.434,-23.344 52.706,-30.43c1.923,-1.11 3.161,-3.112 3.294,-5.328c0.129,-2.135 -0.782,-4.194 -2.435,-5.534c1.037,0.825 5.918,4.909 9.817,11.626c3.882,6.688 4.963,12.945 5.16,14.297c-0.327,-2.095 -1.645,-3.911 -3.548,-4.868c-1.983,-0.997 -4.334,-0.929 -6.256,0.181l-52.738,30.448c-0.912,0.527 -1.669,1.284 -2.196,2.196l-10.392,18c-0.527,0.912 -0.804,1.947 -0.804,3c0,17.903 0,46.738 0.001,60.897c-0,2.21 1.109,4.273 2.952,5.493c1.76,1.165 3.965,1.412 5.931,0.681c-1.416,0.549 -7.296,2.635 -14.884,2.653c-7.732,0.018 -13.692,-2.176 -14.961,-2.681c1.978,0.764 4.209,0.532 5.99,-0.638c1.855,-1.219 2.972,-3.289 2.971,-5.509l-0,-60.896c-0,-1.053 -0.277,-2.088 -0.804,-3l-10.392,-18c-0.527,-0.912 -1.284,-1.669 -2.196,-2.196c-15.505,-8.951 -40.477,-23.369 -52.738,-30.447c-1.915,-1.106 -4.256,-1.177 -6.234,-0.19c-1.888,0.941 -3.206,2.727 -3.555,4.796Z" style="fill:#d0e5f1;"/><g id="edge"><path d="M309.455,129.873c1.864,-0.688 7.46,-2.508 14.545,-2.525c6.942,-0.016 12.454,1.751 14.427,2.478c-3.171,-1.092 -6.688,-0.665 -9.518,1.194c-3.064,2.012 -4.91,5.433 -4.909,9.099c-0.018,-3.646 -1.856,-7.045 -4.901,-9.056c-2.862,-1.891 -6.434,-2.32 -9.644,-1.19Z" style="fill:#6493c6;"/><path d="M405.861,246.467c-0.337,1.959 -1.559,7.715 -5.087,13.859c-3.364,5.859 -7.514,9.701 -9.224,11.142c2.5,-2.264 3.822,-5.568 3.554,-8.953c-0.284,-3.584 -2.313,-6.799 -5.427,-8.596c3.174,1.828 7.054,1.943 10.331,0.305c3.069,-1.533 5.226,-4.411 5.853,-7.757Z" style="fill:#4587d3;"/><path d="M256.684,271.66c-1.528,-1.271 -5.902,-5.207 -9.458,-11.334c-3.486,-6.004 -4.712,-11.661 -5.069,-13.733c0.64,3.292 2.769,6.124 5.793,7.646c3.276,1.647 7.161,1.535 10.335,-0.298c-3.149,1.839 -5.173,5.13 -5.392,8.772c-0.207,3.424 1.207,6.732 3.791,8.947Z" style="fill:#285892;"/></g></g></svg>