<?xml version="1.0" encoding="UTF-8" standalone="no"?><!DOCTYPE svg PUBLIC "-//W3C//DTD SVG 1.1//EN" "http://www.w3.org/Graphics/SVG/1.1/DTD/svg11.dtd"><svg width="100%" height="100%" viewBox="0 0 96 96" version="1.1" xmlns="http://www.w3.org/2000/svg" xmlns:xlink="http://www.w3.org/1999/xlink" xml:space="preserve" xmlns:serif="http://www.serif.com/" style="fill-rule:evenodd;clip-rule:evenodd;stroke-linejoin:round;stroke-miterlimit:2;"><g id="analys-logo"><rect id="background" x="0" y="0" width="96" height="96" style="fill:none;"/><g id="block"><path d="M55.442,90.999c-0.708,0.275 -3.646,1.317 -7.438,1.327l-0,-44.326l38.384,-22.161c1.94,3.343 2.48,6.471 2.579,7.147c0.007,0.043 0.013,0.086 0.018,0.13c-0.001,0.003 -0,0.004 -0,0.004c-0,-0 0.584,6.054 0.584,14.88c0,8.826 -0.584,14.88 -0.584,14.88c-0,0 -0.422,3.494 -2.598,7.283c-2.175,3.789 -5.008,5.891 -5.008,5.891c-0,-0 -4.68,3.339 -11.963,7.58c-0.208,0.121 -0.419,0.243 -0.631,0.366c-0.213,0.123 -0.424,0.244 -0.633,0.364c-7.314,4.187 -12.546,6.57 -12.546,6.57c-0,-0 -0.008,0.003 -0.024,0.01c-0.046,0.019 -0.093,0.038 -0.14,0.055Z" style="fill:#6ca0dc;"/><path d="M6.438,49.648c-0.005,-0.537 -0.007,-1.087 -0.007,-1.648c-0,-0.561 0.002,-1.111 0.007,-1.648c0.065,-7.923 0.577,-13.232 0.577,-13.232c0,-0 0.001,-0.009 0.004,-0.026c0.006,-0.05 0.013,-0.099 0.021,-0.148c0.117,-0.751 0.684,-3.819 2.573,-7.109l0.001,-0.001l38.39,22.164l-0,44.326l-0.004,-0c-3.866,0.009 -6.846,-1.088 -7.481,-1.34c-0.04,-0.016 -0.081,-0.033 -0.122,-0.05c-0.002,-0.002 -0.003,-0.002 -0.003,-0.002c0,-0 -4.952,-2.255 -11.955,-6.233c-0.401,-0.228 -0.809,-0.462 -1.224,-0.701c-0.414,-0.239 -0.82,-0.476 -1.218,-0.709c-6.947,-4.076 -11.376,-7.237 -11.376,-7.237c0,-0 -2.815,-2.112 -5.008,-5.891c-2.194,-3.779 -2.598,-7.283 -2.598,-7.283c0,0 -0.512,-5.309 -0.577,-13.232Z" style="fill:#2d62a3;"/><path d="M81.479,20.024c0.518,0.413 2.959,2.455 4.908,5.813l0.001,0.002l-38.384,22.161l-38.39,-22.164c1.925,-3.352 4.364,-5.384 4.9,-5.807c0.034,-0.028 0.069,-0.055 0.104,-0.081c0.002,-0.001 0.003,-0.002 0.003,-0.002c0,0 4.429,-3.161 11.376,-7.237c0.398,-0.233 0.804,-0.47 1.218,-0.709c0.415,-0.239 0.823,-0.473 1.224,-0.701c7.003,-3.978 11.955,-6.233 11.955,-6.233c0,0 3.237,-1.381 7.606,-1.392c4.369,-0.01 7.606,1.392 7.606,1.392c-0,0 5.232,2.383 12.546,6.57c0.209,0.12 0.42,0.241 0.633,0.364c0.212,0.123 0.423,0.245 0.631,0.366c7.283,4.241 11.963,7.58 11.963,7.58l0.002,0.002c0.033,0.025 0.066,0.05 0.098,0.076Z" style="fill:#93b4d7;"/></g><path id="base" d="M7.04,32.946c0.117,-0.751 0.684,-3.819 2.573,-7.109c1.925,-3.353 4.365,-5.385 4.901,-5.808c-0.826,0.665 -1.283,1.69 -1.221,2.753c0.064,1.108 0.681,2.109 1.642,2.664l26.369,15.224c0.456,0.263 0.973,0.402 1.5,0.402l10.392,-0c0.527,-0 1.044,-0.139 1.5,-0.402c7.746,-4.472 20.217,-11.672 26.353,-15.215c0.962,-0.555 1.58,-1.556 1.647,-2.664c0.064,-1.067 -0.391,-2.097 -1.217,-2.767c0.518,0.413 2.959,2.455 4.908,5.813c1.941,3.344 2.481,6.473 2.58,7.149c-0.164,-1.048 -0.822,-1.956 -1.774,-2.435c-0.992,-0.498 -2.167,-0.464 -3.128,0.091l-26.369,15.224c-0.456,0.263 -0.835,0.642 -1.098,1.098l-5.196,9c-0.263,0.456 -0.402,0.973 -0.402,1.5c0,8.952 0,23.369 0,30.448c0,1.106 0.555,2.137 1.477,2.747c0.879,0.582 1.982,0.706 2.965,0.34c-0.708,0.275 -3.648,1.318 -7.442,1.327c-3.866,0.009 -6.846,-1.088 -7.481,-1.34c0.989,0.382 2.105,0.265 2.996,-0.32c0.927,-0.609 1.485,-1.644 1.485,-2.754l-0,-30.448c-0,-0.527 -0.139,-1.044 -0.402,-1.5l-5.196,-9c-0.263,-0.456 -0.642,-0.835 -1.098,-1.098c-7.752,-4.476 -20.238,-11.684 -26.369,-15.224c-0.957,-0.552 -2.128,-0.588 -3.117,-0.095c-0.944,0.471 -1.603,1.364 -1.778,2.399Z" style="fill:#d0e5f1;"/><g id="edge"><path d="M40.728,4.937c0.932,-0.344 3.73,-1.254 7.272,-1.263c3.471,-0.008 6.227,0.875 7.214,1.239c-1.586,-0.546 -3.345,-0.332 -4.759,0.597c-1.533,1.006 -2.455,2.716 -2.455,4.55c-0.009,-1.824 -0.928,-3.523 -2.45,-4.529c-1.432,-0.945 -3.217,-1.16 -4.822,-0.594Z" style="fill:#6493c6;"/><path d="M88.93,63.234c-0.168,0.979 -0.779,3.857 -2.543,6.929c-1.682,2.93 -3.757,4.851 -4.612,5.571c1.25,-1.132 1.911,-2.784 1.777,-4.477c-0.142,-1.792 -1.157,-3.399 -2.713,-4.298c1.587,0.914 3.527,0.972 5.165,0.153c1.535,-0.766 2.613,-2.206 2.926,-3.878Z" style="fill:#4587d3;"/><path d="M14.342,75.83c-0.764,-0.635 -2.951,-2.603 -4.729,-5.667c-1.743,-3.002 -2.356,-5.83 -2.534,-6.867c0.319,1.646 1.384,3.063 2.896,3.823c1.638,0.824 3.58,0.768 5.168,-0.149c-1.575,0.92 -2.587,2.565 -2.697,4.387c-0.103,1.712 0.604,3.365 1.896,4.473Z" style="fill:#285892;"/></g></g></svg>