<?xml version="1.0" encoding="UTF-8" standalone="no"?><!DOCTYPE svg PUBLIC "-//W3C//DTD SVG 1.1//EN" "http://www.w3.org/Graphics/SVG/1.1/DTD/svg11.dtd"><svg width="100%" height="100%" viewBox="0 0 96 96" version="1.1" xmlns="http://www.w3.org/2000/svg" xmlns:xlink="http://www.w3.org/1999/xlink" xml:space="preserve" xmlns:serif="http://www.serif.com/" style="fill-rule:evenodd;clip-rule:evenodd;stroke-linejoin:round;stroke-miterlimit:2;"><g id="analys-logo"><rect id="background" x="0" y="0" width="96" height="96" style="fill:none;"/><path id="base" d="M81.379,76.054c-0,-0 -4.951,3.533 -12.594,7.946c-7.644,4.413 -13.179,6.934 -13.179,6.934c-0,-0 -3.237,1.381 -7.606,1.392c-4.369,0.01 -7.606,-1.392 -7.606,-1.392c0,-0 -5.535,-2.521 -13.179,-6.934c-7.643,-4.413 -12.594,-7.946 -12.594,-7.946c0,-0 -2.815,-2.112 -5.008,-5.891c-2.194,-3.779 -2.598,-7.283 -2.598,-7.283c0,0 -0.584,-6.054 -0.584,-14.88c-0,-8.826 0.584,-14.88 0.584,-14.88c0,-0 0.422,-3.494 2.598,-7.283c2.175,-3.789 5.008,-5.891 5.008,-5.891c0,0 4.951,-3.533 12.594,-7.946c7.644,-4.413 13.179,-6.934 13.179,-6.934c0,0 3.237,-1.381 7.606,-1.392c4.369,-0.01 7.606,1.392 7.606,1.392c-0,0 5.535,2.521 13.179,6.934c7.643,4.413 12.594,7.946 12.594,7.946c-0,0 2.815,2.112 5.008,5.891c2.194,3.779 2.598,7.283 2.598,7.283c-0,-0 0.584,6.054 0.584,14.88c0,8.826 -0.584,14.88 -0.584,14.88c-0,0 -0.422,3.494 -2.598,7.283c-2.175,3.789 -5.008,5.891 -5.008,5.891" style="fill:#d0e5f1;fill-rule:nonzero;"/><g id="block"><path d="M84.065,30.642c0.961,-0.555 2.136,-0.589 3.128,-0.091c0.991,0.499 1.665,1.463 1.792,2.565c-0.001,0.003 -0,0.004 -0,0.004c-0,-0 0.584,6.054 0.584,14.88c0,8.826 -0.584,14.88 -0.584,14.88c-0,0 -0.422,3.494 -2.598,7.283c-2.175,3.789 -5.008,5.891 -5.008,5.891c-0,-0 -4.951,3.533 -12.594,7.946c-7.644,4.413 -13.179,6.934 -13.179,6.934c-0,-0 -0.008,0.003 -0.024,0.01c-1.017,0.432 -2.184,0.325 -3.105,-0.285c-0.922,-0.61 -1.477,-1.641 -1.477,-2.747c0,-7.079 0,-21.496 0,-30.448c-0,-0.527 0.139,-1.044 0.402,-1.5l5.196,-9c0.263,-0.456 0.642,-0.835 1.098,-1.098l26.369,-15.224Z" style="fill:#6ca0dc;"/><path d="M45,87.912c0,1.11 -0.558,2.145 -1.485,2.754c-0.928,0.61 -2.1,0.711 -3.118,0.27c-0.002,-0.002 -0.003,-0.002 -0.003,-0.002c0,-0 -5.535,-2.521 -13.179,-6.934c-7.643,-4.413 -12.594,-7.946 -12.594,-7.946c0,-0 -2.815,-2.112 -5.008,-5.891c-2.194,-3.779 -2.598,-7.283 -2.598,-7.283c0,0 -0.584,-6.054 -0.584,-14.88c-0,-8.826 0.584,-14.88 0.584,-14.88c0,-0 0.001,-0.009 0.004,-0.026c0.134,-1.097 0.81,-2.053 1.799,-2.547c0.989,-0.493 2.16,-0.457 3.117,0.095c6.131,3.54 18.617,10.748 26.369,15.224c0.456,0.263 0.835,0.642 1.098,1.098l5.196,9c0.263,0.456 0.402,0.973 0.402,1.5l0,30.448Z" style="fill:#2d62a3;"/><path d="M14.935,25.446c-0.961,-0.555 -1.578,-1.556 -1.642,-2.664c-0.064,-1.107 0.434,-2.173 1.325,-2.834c0.002,-0.001 0.003,-0.002 0.003,-0.002c0,0 4.951,-3.533 12.594,-7.946c7.644,-4.413 13.179,-6.934 13.179,-6.934c0,0 3.237,-1.381 7.606,-1.392c4.369,-0.01 7.606,1.392 7.606,1.392c-0,0 5.535,2.521 13.179,6.934c7.643,4.413 12.594,7.946 12.594,7.946l0.002,0.002c0.888,0.667 1.382,1.735 1.315,2.843c-0.067,1.108 -0.685,2.109 -1.647,2.664c-6.136,3.543 -18.607,10.743 -26.353,15.215c-0.456,0.263 -0.973,0.402 -1.5,0.402l-10.392,-0c-0.527,-0 -1.044,-0.139 -1.5,-0.402l-26.369,-15.224Z" style="fill:#93b4d7;"/></g><g id="edge"><path d="M40.728,4.937c0.932,-0.344 3.73,-1.254 7.272,-1.263c3.471,-0.008 6.227,0.875 7.214,1.239c-1.586,-0.546 -3.345,-0.332 -4.759,0.597c-1.533,1.006 -2.455,2.716 -2.455,4.55c-0.009,-1.824 -0.928,-3.523 -2.45,-4.529c-1.432,-0.945 -3.217,-1.16 -4.822,-0.594Z" style="fill:#6493c6;"/><path d="M88.93,63.234c-0.168,0.979 -0.779,3.857 -2.543,6.929c-1.682,2.93 -3.757,4.851 -4.612,5.571c1.25,-1.132 1.911,-2.784 1.777,-4.477c-0.142,-1.792 -1.157,-3.399 -2.713,-4.298c1.587,0.914 3.527,0.972 5.165,0.153c1.535,-0.766 2.613,-2.206 2.926,-3.878Z" style="fill:#4587d3;"/><path d="M14.342,75.83c-0.764,-0.635 -2.951,-2.603 -4.729,-5.667c-1.743,-3.002 -2.356,-5.83 -2.534,-6.867c0.319,1.646 1.384,3.063 2.896,3.823c1.638,0.824 3.58,0.768 5.168,-0.149c-1.575,0.92 -2.587,2.565 -2.697,4.387c-0.103,1.712 0.604,3.365 1.896,4.473Z" style="fill:#285892;"/></g></g></svg>