<?xml version="1.0" encoding="UTF-8" standalone="no"?><!DOCTYPE svg PUBLIC "-//W3C//DTD SVG 1.1//EN" "http://www.w3.org/Graphics/SVG/1.1/DTD/svg11.dtd"><svg width="100%" height="100%" viewBox="0 0 1296 432" version="1.1" xmlns="http://www.w3.org/2000/svg" xmlns:xlink="http://www.w3.org/1999/xlink" xml:space="preserve" xmlns:serif="http://www.serif.com/" style="fill-rule:evenodd;clip-rule:evenodd;stroke-linejoin:round;stroke-miterlimit:2;"><g id="analys-logo"><path d="M1008.67,205.301l-5.198,0c-1.083,-3.14 -2.68,-5.929 -4.792,-8.365c-2.111,-2.437 -4.494,-4.548 -7.147,-6.335c-2.653,-1.787 -5.549,-3.14 -8.69,-4.061c-3.14,-0.92 -6.335,-1.38 -9.583,-1.38c-1.733,-0 -3.547,0.162 -5.442,0.487c-1.895,0.325 -3.628,0.893 -5.198,1.705c-1.57,0.813 -2.869,1.95 -3.898,3.412c-1.029,1.461 -1.543,3.275 -1.543,5.441c-0,2.382 0.677,4.359 2.03,5.929c1.354,1.57 3.168,2.897 5.442,3.979c2.274,1.083 4.873,2.004 7.796,2.762c2.924,0.758 6.01,1.516 9.259,2.274c3.899,0.758 7.851,1.651 11.858,2.68c4.006,1.029 7.58,2.409 10.72,4.142c3.141,1.733 5.713,3.926 7.716,6.579c2.003,2.653 3.005,6.091 3.005,10.314c0,4.657 -1.029,8.69 -3.086,12.101c-2.058,3.412 -4.738,6.227 -8.041,8.447c-3.303,2.22 -7.011,3.844 -11.126,4.873c-4.115,1.029 -8.284,1.543 -12.508,1.543c-2.599,0 -4.792,-0.108 -6.578,-0.325c-1.787,-0.216 -3.384,-0.487 -4.792,-0.812c-1.408,-0.325 -2.734,-0.731 -3.98,-1.218c-1.245,-0.487 -2.517,-1.056 -3.817,-1.706c-0.975,-0.541 -2.112,-1.083 -3.411,-1.624c-1.299,-0.541 -2.707,-1.137 -4.223,-1.787l-0,0.163l-2.112,6.497l-5.523,-0l-5.36,-29.076l5.685,0c1.083,3.682 2.762,7.012 5.036,9.99c2.274,2.978 4.954,5.496 8.04,7.553c3.086,2.058 6.443,3.655 10.071,4.792c3.628,1.137 7.282,1.706 10.964,1.706c2.491,-0 4.927,-0.244 7.31,-0.731c2.382,-0.488 4.548,-1.3 6.497,-2.437c1.949,-1.137 3.519,-2.68 4.711,-4.629c1.191,-1.949 1.786,-4.386 1.786,-7.31c0,-2.274 -0.676,-4.196 -2.03,-5.766c-1.354,-1.57 -3.167,-2.924 -5.442,-4.061c-2.274,-1.137 -4.9,-2.112 -7.878,-2.924c-2.977,-0.812 -6.091,-1.597 -9.339,-2.355c-3.899,-0.975 -7.824,-2.003 -11.777,-3.086c-3.952,-1.083 -7.526,-2.491 -10.72,-4.224c-3.195,-1.732 -5.767,-3.871 -7.716,-6.416c-1.949,-2.544 -2.924,-5.766 -2.924,-9.664c0,-4.115 1.002,-7.635 3.005,-10.559c2.003,-2.923 4.548,-5.36 7.635,-7.309c3.086,-1.949 6.524,-3.384 10.314,-4.305c3.79,-0.92 7.418,-1.38 10.883,-1.38c4.007,-0 7.986,0.649 11.939,1.949c3.952,1.299 7.553,3.086 10.802,5.36l-0,-0.162l1.624,-5.361l4.548,0l5.198,24.69Z" style="fill:#2d62a3;fill-rule:nonzero;"/><path d="M882.718,180.287l0,4.223l-11.857,3.248l-0,0.65c3.898,9.53 7.797,19.059 11.695,28.589c3.898,9.529 7.743,19.167 11.533,28.913l21.441,-56.852l-0,-0.487l-14.294,-4.061l-0,-4.386l35.898,0l-0,4.548l-11.533,3.086l-0,0.163c-5.74,13.536 -11.371,26.937 -16.893,40.202c-5.523,13.266 -11.154,26.612 -16.893,40.04c-0.867,2.166 -1.814,4.25 -2.843,6.254c-1.029,2.003 -2.139,4.033 -3.33,6.091c-0.65,1.191 -1.272,2.301 -1.868,3.33c-0.595,1.029 -1.164,2.084 -1.705,3.167c-2.274,4.224 -5.604,7.445 -9.99,9.665c-4.386,2.22 -8.907,3.33 -13.563,3.33c-1.733,-0 -3.465,-0.162 -5.198,-0.487c-1.733,-0.325 -3.303,-0.867 -4.711,-1.625c-1.407,-0.758 -2.544,-1.786 -3.411,-3.086c-0.866,-1.299 -1.299,-2.978 -1.299,-5.035c-0,-1.95 0.731,-3.709 2.193,-5.279c1.462,-1.571 3.275,-2.356 5.441,-2.356c1.733,0 3.141,0.406 4.223,1.219c1.083,0.812 2.166,1.759 3.249,2.842c1.191,1.191 2.409,2.274 3.655,3.249c1.245,0.974 2.897,1.462 4.954,1.462c1.191,-0 2.572,-0.325 4.142,-0.975c1.57,-0.65 2.626,-1.57 3.168,-2.761l11.045,-20.142l0,-0.325l-31.999,-78.78l-0,-0.163l-10.883,-2.923l-0,-4.548l39.633,-0Z" style="fill:#2d62a3;fill-rule:nonzero;"/><path d="M826.841,141.303l0.163,111.266l-0,0.325l13.644,3.411l0,4.711l-44.507,-0l0,-4.386l14.294,-3.736l0,-100.059l-14.456,0l-0,-4.71l24.69,-6.822l6.172,-0Z" style="fill:#2d62a3;fill-rule:nonzero;"/><path d="M757.807,198.479c0,-1.841 -0.514,-3.573 -1.543,-5.198c-1.029,-1.624 -2.437,-3.032 -4.223,-4.223c-1.787,-1.191 -3.818,-2.166 -6.092,-2.924c-2.274,-0.758 -4.71,-1.137 -7.309,-1.137c-1.733,0 -3.628,0.163 -5.685,0.487c-2.058,0.325 -3.98,0.894 -5.767,1.706c-1.786,0.812 -3.275,1.949 -4.467,3.411c-1.191,1.462 -1.786,3.276 -1.786,5.442c-0,1.082 -0.109,2.247 -0.325,3.492c-0.217,1.245 -0.623,2.355 -1.218,3.33c-0.596,0.974 -1.354,1.787 -2.275,2.436c-0.92,0.65 -2.084,0.975 -3.492,0.975c-2.166,-0 -4.169,-0.514 -6.01,-1.543c-1.841,-1.029 -2.761,-2.68 -2.761,-4.954c-0,-2.924 0.947,-5.631 2.842,-8.122c1.895,-2.491 4.548,-4.657 7.96,-6.497c3.411,-1.841 7.417,-3.276 12.02,-4.305c4.602,-1.029 9.61,-1.543 15.025,-1.543c4.548,-0 8.717,0.541 12.507,1.624c3.79,1.083 7.093,2.572 9.909,4.467c2.815,1.895 5.008,4.142 6.578,6.741c1.57,2.599 2.355,5.415 2.355,8.447l0,51.654l16.244,4.385l-0,4.386l-23.066,-0l-9.421,-10.396l0,-0.162c-3.032,2.166 -5.793,3.979 -8.284,5.441c-2.491,1.462 -4.927,2.653 -7.31,3.574c-2.382,0.92 -4.737,1.57 -7.065,1.949c-2.329,0.379 -4.846,0.569 -7.554,0.569c-3.79,-0 -7.309,-0.434 -10.558,-1.3c-3.248,-0.866 -6.064,-2.057 -8.446,-3.573c-2.383,-1.516 -4.251,-3.33 -5.604,-5.442c-1.354,-2.112 -2.031,-4.413 -2.031,-6.903c0,-4.224 0.975,-7.878 2.924,-10.965c1.949,-3.086 4.494,-5.766 7.635,-8.04c3.14,-2.274 6.74,-4.142 10.801,-5.604c4.061,-1.462 8.203,-2.626 12.426,-3.492c4.224,-0.867 8.339,-1.462 12.345,-1.787c4.007,-0.325 7.581,-0.487 10.721,-0.487l0,-15.919Zm-0.162,21.116c-13.103,0.975 -22.958,3.303 -29.563,6.985c-6.606,3.682 -9.909,8.717 -9.909,15.106c0,3.899 1.354,7.012 4.061,9.34c2.707,2.329 6.497,3.493 11.37,3.493c4.873,-0 9.178,-1.083 12.914,-3.249c3.736,-2.166 7.445,-4.656 11.127,-7.472l-0,-24.203Z" style="fill:#2d62a3;fill-rule:nonzero;"/><path d="M620.901,193.119c2.058,-2.058 4.467,-3.953 7.228,-5.685c2.762,-1.733 5.658,-3.249 8.691,-4.549c3.032,-1.299 6.118,-2.301 9.258,-3.005c3.141,-0.703 6.173,-1.055 9.097,-1.055c2.598,-0 5.441,0.406 8.527,1.218c3.087,0.812 5.929,1.976 8.528,3.492c2.599,1.516 4.792,3.438 6.579,5.767c1.786,2.328 2.68,5.008 2.68,8.04l-0,55.715l13.969,3.736l0,4.223l-44.507,-0l0,-4.061l13.97,-3.736l-0,-52.628c-0,-1.841 -0.434,-3.601 -1.3,-5.279c-0.866,-1.679 -1.976,-3.168 -3.33,-4.467c-1.353,-1.3 -2.897,-2.356 -4.629,-3.168c-1.733,-0.812 -3.465,-1.218 -5.198,-1.218c-1.733,0 -4.034,0.46 -6.903,1.381c-2.87,0.92 -5.794,2.057 -8.772,3.411c-2.978,1.353 -5.739,2.842 -8.284,4.467c-2.545,1.624 -4.359,3.14 -5.442,4.548l0,52.791l13.97,3.736l-0,4.223l-44.182,-0l-0,-4.061l13.969,-3.736l0,-61.887l-14.619,0l0,-4.386c1.841,-0.649 4.034,-1.353 6.579,-2.111c2.544,-0.758 5.17,-1.462 7.878,-2.112c2.707,-0.65 5.333,-1.218 7.878,-1.705c2.545,-0.488 4.683,-0.731 6.416,-0.731c0.974,-0 1.624,0.054 1.949,0.162l0,12.67Z" style="fill:#2d62a3;fill-rule:nonzero;"/><path d="M552.841,198.479c0,-1.841 -0.514,-3.573 -1.543,-5.198c-1.028,-1.624 -2.436,-3.032 -4.223,-4.223c-1.787,-1.191 -3.817,-2.166 -6.091,-2.924c-2.274,-0.758 -4.711,-1.137 -7.31,-1.137c-1.732,0 -3.627,0.163 -5.685,0.487c-2.057,0.325 -3.979,0.894 -5.766,1.706c-1.787,0.812 -3.276,1.949 -4.467,3.411c-1.191,1.462 -1.787,3.276 -1.787,5.442c0,1.082 -0.108,2.247 -0.325,3.492c-0.216,1.245 -0.622,2.355 -1.218,3.33c-0.596,0.974 -1.354,1.787 -2.274,2.436c-0.921,0.65 -2.085,0.975 -3.492,0.975c-2.166,-0 -4.17,-0.514 -6.01,-1.543c-1.841,-1.029 -2.762,-2.68 -2.762,-4.954c0,-2.924 0.948,-5.631 2.843,-8.122c1.895,-2.491 4.548,-4.657 7.959,-6.497c3.411,-1.841 7.418,-3.276 12.02,-4.305c4.602,-1.029 9.611,-1.543 15.025,-1.543c4.548,-0 8.717,0.541 12.508,1.624c3.79,1.083 7.092,2.572 9.908,4.467c2.815,1.895 5.008,4.142 6.579,6.741c1.57,2.599 2.355,5.415 2.355,8.447l-0,51.654l16.243,4.385l0,4.386l-23.065,-0l-9.422,-10.396l0,-0.162c-3.032,2.166 -5.793,3.979 -8.284,5.441c-2.49,1.462 -4.927,2.653 -7.309,3.574c-2.383,0.92 -4.738,1.57 -7.066,1.949c-2.328,0.379 -4.846,0.569 -7.553,0.569c-3.79,-0 -7.31,-0.434 -10.558,-1.3c-3.249,-0.866 -6.065,-2.057 -8.447,-3.573c-2.382,-1.516 -4.25,-3.33 -5.604,-5.442c-1.353,-2.112 -2.03,-4.413 -2.03,-6.903c-0,-4.224 0.974,-7.878 2.924,-10.965c1.949,-3.086 4.494,-5.766 7.634,-8.04c3.14,-2.274 6.741,-4.142 10.802,-5.604c4.061,-1.462 8.203,-2.626 12.426,-3.492c4.223,-0.867 8.338,-1.462 12.345,-1.787c4.007,-0.325 7.58,-0.487 10.72,-0.487l0,-15.919Zm-0.162,21.116c-13.103,0.975 -22.957,3.303 -29.563,6.985c-6.605,3.682 -9.908,8.717 -9.908,15.106c-0,3.899 1.353,7.012 4.061,9.34c2.707,2.329 6.497,3.493 11.37,3.493c4.873,-0 9.177,-1.083 12.913,-3.249c3.736,-2.166 7.445,-4.656 11.127,-7.472l0,-24.203Z" style="fill:#2d62a3;fill-rule:nonzero;"/></g><g id="analys-logo1" serif:id="analys-logo"><rect id="background" x="234" y="126" width="180" height="180" style="fill:none;"/><path id="base" d="M386.585,268.601c0,-0 -9.283,6.625 -23.614,14.899c-14.331,8.274 -24.71,13.001 -24.71,13.001c-0,-0 -6.069,2.59 -14.261,2.61c-8.192,0.019 -14.261,-2.61 -14.261,-2.61c0,-0 -10.379,-4.727 -24.71,-13.001c-14.331,-8.274 -23.614,-14.899 -23.614,-14.899c-0,-0 -5.278,-3.961 -9.391,-11.046c-4.113,-7.085 -4.87,-13.655 -4.87,-13.655c-0,0 -1.096,-11.352 -1.096,-27.9c-0,-16.548 1.096,-27.9 1.096,-27.9c-0,-0 0.791,-6.551 4.87,-13.655c4.079,-7.105 9.391,-11.046 9.391,-11.046c-0,0 9.283,-6.625 23.614,-14.899c14.331,-8.274 24.71,-13.001 24.71,-13.001c0,0 6.069,-2.59 14.261,-2.61c8.192,-0.019 14.261,2.61 14.261,2.61c-0,0 10.379,4.727 24.71,13.001c14.331,8.274 23.614,14.899 23.614,14.899c0,0 5.278,3.961 9.391,11.046c4.113,7.085 4.87,13.655 4.87,13.655c0,-0 1.096,11.352 1.096,27.9c0,16.548 -1.096,27.9 -1.096,27.9c0,0 -0.791,6.551 -4.87,13.655c-4.079,7.105 -9.391,11.046 -9.391,11.046" style="fill:#d0e5f1;fill-rule:nonzero;"/><g id="block"><path d="M391.622,183.454c1.801,-1.041 4.006,-1.105 5.864,-0.17c1.859,0.934 3.122,2.742 3.361,4.809c-0.001,0.005 -0.001,0.007 -0.001,0.007c0,-0 1.096,11.352 1.096,27.9c0,16.548 -1.096,27.9 -1.096,27.9c0,0 -0.791,6.551 -4.87,13.655c-4.079,7.105 -9.391,11.046 -9.391,11.046c0,-0 -9.283,6.625 -23.614,14.899c-14.331,8.274 -24.71,13.001 -24.71,13.001c-0,-0 -0.015,0.006 -0.045,0.018c-1.907,0.811 -4.094,0.61 -5.822,-0.533c-1.729,-1.144 -2.768,-3.078 -2.768,-5.15c-0.001,-13.274 -0.001,-40.307 -0.001,-57.091c-0,-0.987 0.26,-1.957 0.754,-2.812l9.742,-16.875c0.494,-0.855 1.204,-1.565 2.059,-2.059l49.442,-28.545Z" style="fill:#6ca0dc;"/><path d="M318.375,290.835c0.001,2.081 -1.046,4.022 -2.785,5.164c-1.739,1.143 -3.936,1.333 -5.845,0.506c-0.004,-0.003 -0.006,-0.004 -0.006,-0.004c0,-0 -10.379,-4.727 -24.71,-13.001c-14.331,-8.274 -23.614,-14.899 -23.614,-14.899c-0,-0 -5.278,-3.961 -9.391,-11.046c-4.113,-7.085 -4.87,-13.655 -4.87,-13.655c-0,0 -1.096,-11.352 -1.096,-27.9c-0,-16.548 1.096,-27.9 1.096,-27.9c-0,-0 0.002,-0.016 0.006,-0.048c0.252,-2.057 1.519,-3.851 3.374,-4.776c1.854,-0.925 4.049,-0.858 5.844,0.178c11.495,6.636 34.906,20.153 49.442,28.545c0.855,0.493 1.565,1.204 2.059,2.059l9.742,16.875c0.494,0.855 0.754,1.825 0.754,2.812l-0,57.09Z" style="fill:#2d62a3;"/><path d="M262.003,173.711c-1.802,-1.04 -2.959,-2.917 -3.079,-4.994c-0.12,-2.077 0.814,-4.075 2.484,-5.315c0.005,-0.001 0.007,-0.003 0.007,-0.003c-0,0 9.283,-6.625 23.614,-14.899c14.331,-8.274 24.71,-13.001 24.71,-13.001c0,0 6.069,-2.59 14.261,-2.61c8.192,-0.019 14.261,2.61 14.261,2.61c-0,0 10.379,4.727 24.71,13.001c14.331,8.274 23.614,14.899 23.614,14.899l0.005,0.004c1.664,1.25 2.591,3.252 2.465,5.33c-0.125,2.078 -1.285,3.954 -3.088,4.995c-11.506,6.643 -34.889,20.143 -49.412,28.528c-0.855,0.494 -1.825,0.754 -2.812,0.754l-19.486,-0c-0.987,-0 -1.957,-0.26 -2.812,-0.754l-49.442,-28.545Z" style="fill:#93b4d7;"/></g><g id="edge"><path d="M310.364,135.256c1.748,-0.645 6.994,-2.351 13.636,-2.367c6.508,-0.015 11.676,1.641 13.526,2.323c-2.973,-1.024 -6.271,-0.623 -8.924,1.119c-2.873,1.887 -4.603,5.093 -4.602,8.531c-0.017,-3.419 -1.74,-6.605 -4.595,-8.491c-2.683,-1.773 -6.031,-2.175 -9.041,-1.115Z" style="fill:#6493c6;"/><path d="M400.744,244.563c-0.315,1.836 -1.46,7.232 -4.768,12.992c-3.154,5.493 -7.045,9.095 -8.648,10.447c2.344,-2.123 3.583,-5.221 3.332,-8.394c-0.266,-3.36 -2.169,-6.374 -5.088,-8.059c2.976,1.714 6.614,1.822 9.686,0.286c2.877,-1.437 4.899,-4.136 5.486,-7.272Z" style="fill:#4587d3;"/><path d="M260.892,268.181c-1.433,-1.191 -5.533,-4.881 -8.868,-10.626c-3.267,-5.628 -4.417,-10.931 -4.751,-12.874c0.599,3.086 2.595,5.742 5.43,7.168c3.071,1.545 6.713,1.44 9.69,-0.28c-2.953,1.724 -4.85,4.81 -5.056,8.225c-0.194,3.21 1.132,6.31 3.555,8.387Z" style="fill:#285892;"/></g></g></svg>